<svg xmlns="http://www.w3.org/2000/svg" width="1304" height="638" fill="none" viewBox="0 0 1304 638"><g clip-path="url(#clip0_7060_5631)"><rect width="1304" height="638" fill="#F2F2F7"/><rect width="1113" height="638" x="56" y="8" fill="url(#paint0_radial_7060_5631)"/><path fill="#01657F" d="M580 82C576 56.8 606.667 42.1666 622.5 38C692 -23.5 725 28 795.5 38C866 48 843.5 152 841.5 168.5C839.5 185 832.5 198 885 213.5C937.5 229 981.5 275 984.5 325C987.5 375 912 371 896.5 405C881 439 694 398 644 397.5C594 397 591 348.5 593 322C595 295.5 538.5 287 513 248C487.5 209 570 163 583 155.5C596 148 585 113.5 580 82Z"/><mask id="mask0_7060_5631" style="mask-type:alpha" width="332" height="332" x="397" y="247" maskUnits="userSpaceOnUse"><path fill="#02B2C4" d="M704.887 295.515C662.891 216.138 619.5 255 609.095 270.198C585 326 662.558 497.504 658.366 500.922C654.175 504.34 548.603 486.997 542.721 485.709C536.84 484.42 451.715 435.012 448.038 439.806C436.675 454.617 479.532 475.141 480.632 488.559C481.731 501.977 406.367 519.051 398.828 528.239C392.798 535.589 406.949 539.808 414.779 540.999C411.005 541.929 405.919 544.967 415.769 549.675C428.082 555.56 453.779 551.964 467.05 551.343C480.321 550.722 438.484 560.856 433.815 564.127C429.145 567.397 435.882 570.971 453.921 571.889C494.615 573.958 515.833 547.533 539.396 547.466C562.96 547.399 696.095 594.157 712.863 573.686C739.898 540.681 726.924 366.653 704.887 295.515Z"/></mask><g mask="url(#mask0_7060_5631)"><path fill="#02B2C4" d="M704.887 295.515C662.891 216.138 619.5 255 609.095 270.198C585 326 662.558 497.504 658.366 500.922C654.175 504.34 548.603 486.997 542.721 485.709C536.84 484.42 451.715 435.012 448.038 439.806C436.675 454.617 479.532 475.141 480.632 488.559C481.731 501.977 406.367 519.051 398.828 528.239C392.798 535.589 406.949 539.808 414.779 540.999C411.005 541.929 405.919 544.967 415.769 549.675C428.082 555.56 453.779 551.964 467.05 551.343C480.321 550.722 438.484 560.856 433.815 564.127C429.145 567.397 435.882 570.971 453.921 571.889C494.615 573.958 515.833 547.533 539.396 547.466C562.96 547.399 696.095 594.157 712.863 573.686C739.898 540.681 726.924 366.653 704.887 295.515Z"/><path fill="#A1D3CD" d="M757.61 426.219C738.796 418.8 628.165 424.583 621.27 425.558C489.268 330.455 602.059 197.402 656.999 183.905C711.938 170.408 776.424 433.638 757.61 426.219Z"/><path fill="#CAE2D4" d="M716.415 342.313C673.913 313.01 593.904 341.763 588.694 342.101C556.415 221.767 626.981 193.915 678.175 201.105C729.368 208.295 758.916 371.615 716.415 342.313Z"/><path fill="#fff" fill-opacity=".25" d="M602.032 302.074C598.612 274.192 599.853 242.562 604.386 231.806L424.697 347.888C405.664 397.034 367.59 496.249 367.561 499.936C367.524 504.546 384.017 537.599 390.725 539.659C397.434 541.72 476.505 501.462 481.826 493.966C487.147 486.47 443.933 451.359 446.519 446.824C449.104 442.289 529.795 483.993 541.001 486.578C552.207 489.162 661.579 516.871 667.5 509C673.421 501.129 606.308 336.927 602.032 302.074Z"/></g><g filter="url(#filter0_d_7060_5631)"><mask id="mask1_7060_5631" style="mask-type:alpha" width="132" height="128" x="494" y="416" maskUnits="userSpaceOnUse"><path fill="#178A9E" d="M622.063 425.926L625.517 530.28C625.561 531.524 625.358 532.765 624.92 533.93C624.483 535.095 623.819 536.162 622.967 537.07C622.116 537.978 621.093 538.708 619.958 539.219C618.823 539.73 617.598 540.011 616.354 540.047L508.205 543.627C506.96 543.677 505.717 543.48 504.549 543.046C503.381 542.613 502.31 541.952 501.398 541.102C500.487 540.253 499.753 539.231 499.239 538.095C498.725 536.96 498.441 535.734 498.404 534.489L494.945 430.003C494.902 428.759 495.105 427.519 495.543 426.354C495.981 425.189 496.645 424.122 497.496 423.215C498.348 422.307 499.37 421.577 500.505 421.066C501.64 420.555 502.864 420.273 504.108 420.236L508.052 420.106C510.29 420.028 512.482 420.747 514.241 422.133C516 423.519 517.21 425.483 517.658 427.678C518.105 429.87 519.315 431.833 521.072 433.218C522.83 434.603 525.021 435.321 527.257 435.243L590.288 433.157C592.526 433.087 594.667 432.227 596.33 430.729C597.993 429.23 599.071 427.191 599.373 424.972C599.682 422.821 600.734 420.846 602.346 419.389C604.025 417.866 606.19 416.989 608.455 416.913L612.273 416.787C613.517 416.74 614.758 416.94 615.924 417.375C617.09 417.809 618.159 418.47 619.069 419.32C619.979 420.169 620.712 421.19 621.226 422.324C621.739 423.458 622.024 424.682 622.063 425.926Z"/></mask><g mask="url(#mask1_7060_5631)"><path fill="#178A9E" d="M622.063 425.926L625.517 530.28C625.561 531.524 625.358 532.765 624.92 533.93C624.483 535.095 623.819 536.162 622.967 537.07C622.116 537.978 621.093 538.708 619.958 539.219C618.823 539.73 617.598 540.011 616.354 540.047L508.205 543.627C506.96 543.677 505.717 543.48 504.549 543.046C503.381 542.613 502.31 541.952 501.398 541.102C500.487 540.253 499.753 539.231 499.239 538.095C498.725 536.96 498.441 535.734 498.404 534.489L494.945 430.003C494.902 428.759 495.105 427.519 495.543 426.354C495.981 425.189 496.645 424.122 497.496 423.215C498.348 422.307 499.37 421.577 500.505 421.066C501.64 420.555 502.864 420.273 504.108 420.236L508.052 420.106C510.29 420.028 512.482 420.747 514.241 422.133C516 423.519 517.21 425.483 517.658 427.678C518.105 429.87 519.315 431.833 521.072 433.218C522.83 434.603 525.021 435.321 527.257 435.243L590.288 433.157C592.526 433.087 594.667 432.227 596.33 430.729C597.993 429.23 599.071 427.191 599.373 424.972C599.682 422.821 600.734 420.846 602.346 419.389C604.025 417.866 606.19 416.989 608.455 416.913L612.273 416.787C613.517 416.74 614.758 416.94 615.924 417.375C617.09 417.809 618.159 418.47 619.069 419.32C619.979 420.169 620.712 421.19 621.226 422.324C621.739 423.458 622.024 424.682 622.063 425.926Z"/><path fill="#02B2C4" d="M621.533 423.084C620.785 420.946 619.289 419.152 617.322 418.031L616.719 399.825C616.618 396.711 616.267 393.611 615.67 390.553C613.844 381.377 609.866 372.767 604.064 365.428C598.262 358.089 590.801 352.233 582.295 348.339C562.461 350.712 540.145 353.664 519.771 356.887C512.91 362.727 507.463 370.047 503.84 378.296C500.216 386.545 498.51 395.508 498.851 404.511L499.418 421.648C498 422.52 496.84 423.753 496.055 425.221C495.27 426.689 494.889 428.339 494.951 430.002L497.303 501.028C521.936 504.304 554.77 500.543 571.202 485.015C587.634 469.487 606.394 453.828 622.719 445.542L622.069 425.925C622.038 424.956 621.857 423.998 621.533 423.084ZM513.804 403.232C513.429 391.719 517.593 380.519 525.397 372.046C533.202 363.573 544.022 358.505 555.528 357.934C577.582 356.857 596.588 372.468 600.862 393.519C601.362 395.973 601.655 398.465 601.737 400.967L602.347 419.383C600.734 420.84 599.683 422.815 599.373 424.966C599.072 427.184 597.993 429.224 596.33 430.722C594.667 432.221 592.526 433.081 590.289 433.151L527.258 435.237C525.022 435.315 522.83 434.597 521.073 433.212C519.315 431.827 518.105 429.864 517.658 427.671C517.232 425.565 516.099 423.667 514.447 422.293L513.804 403.232Z"/><path fill="#A1D3CE" d="M617.321 418.032L616.718 399.826C616.617 396.712 616.267 393.611 615.67 390.553C612.902 376.718 605.287 364.325 594.195 355.606C583.102 346.887 569.261 342.414 555.164 342.992C542.127 343.507 529.645 348.403 519.735 356.888C512.874 362.728 507.427 370.048 503.803 378.297C500.18 386.546 498.474 395.509 498.814 404.513L499.382 421.649C497.964 422.521 496.803 423.755 496.019 425.222C495.234 426.69 494.853 428.34 494.915 430.004L496.648 482.339C520.128 484.05 548.436 479.626 563.296 465.586C582.06 447.857 603.763 430.025 621.502 423.085C620.763 420.952 619.278 419.158 617.321 418.032ZM599.373 424.972C599.071 427.191 597.993 429.23 596.33 430.729C594.667 432.227 592.526 433.088 590.289 433.157L527.258 435.244C525.021 435.321 522.83 434.603 521.072 433.218C519.315 431.833 518.105 429.87 517.658 427.678C517.231 425.571 516.099 423.674 514.447 422.299L513.816 403.232C513.441 391.721 517.603 380.523 525.404 372.05C533.206 363.577 544.024 358.508 555.527 357.934C577.582 356.857 596.588 372.468 600.862 393.52C601.362 395.973 601.654 398.465 601.736 400.968L602.346 419.383C600.733 420.842 599.681 422.819 599.373 424.972Z"/><path fill="#BBDBCA" d="M615.67 390.553C612.902 376.718 605.287 364.325 594.195 355.606C583.102 346.887 569.261 342.414 555.164 342.992C542.127 343.507 529.645 348.403 519.735 356.888C512.874 362.728 507.427 370.048 503.803 378.297C500.18 386.546 498.474 395.509 498.814 404.513L499.382 421.649C497.964 422.521 496.803 423.755 496.019 425.223C495.234 426.69 494.853 428.34 494.915 430.004L496.016 463.249C517.66 463.531 541.527 458.656 554.752 446.159C559.125 442.025 563.66 437.891 568.264 433.886L527.258 435.244C525.021 435.321 522.83 434.603 521.072 433.218C519.315 431.833 518.105 429.87 517.658 427.678C517.231 425.571 516.099 423.674 514.447 422.299L513.816 403.232C513.441 391.721 517.603 380.523 525.404 372.05C533.206 363.577 544.024 358.508 555.527 357.934C577.582 356.857 596.588 372.468 600.862 393.52C601.362 395.973 601.654 398.465 601.736 400.968L602.002 408.986C606.682 406.239 611.643 404.001 616.801 402.311L616.718 399.826C616.617 396.712 616.267 393.611 615.67 390.553Z"/><path fill="#576D90" fill-opacity=".36" d="M507.508 433.315C495.636 434.383 495.463 422.948 496.861 417.098L499.96 400.425L627.325 396.209L640.606 508.95L493.784 544.704C475.548 522.653 450.646 480.246 496.929 487.026C543.213 493.807 595.326 487.233 615.597 483.098L613.832 429.795L609.063 429.953C600.984 430.221 599.982 421.454 600.491 417.037C580.068 416.59 536.508 416.853 525.652 421.481C512.083 427.266 522.349 431.982 507.508 433.315Z"/></g><g filter="url(#filter1_i_7060_5631)"><path fill="#fff" d="M616.718 399.826L617.348 418.856C617.38 419.84 617.217 420.82 616.87 421.741C616.523 422.662 615.997 423.505 615.324 424.223C614.651 424.941 613.842 425.519 612.946 425.924C612.049 426.33 611.081 426.554 610.097 426.585C608.122 426.632 606.207 425.906 604.759 424.562C603.311 423.218 602.445 421.362 602.346 419.389L601.736 400.974C601.654 398.469 601.362 395.975 600.861 393.52C596.576 372.486 577.582 356.875 555.527 357.934C544.028 358.508 533.213 363.574 525.412 372.041C517.611 380.509 513.446 391.701 513.814 403.208L514.446 422.275C514.507 424.264 513.775 426.196 512.412 427.645C511.049 429.095 509.166 429.943 507.177 430.005C505.188 430.066 503.256 429.334 501.806 427.971C500.357 426.608 499.508 424.724 499.447 422.736L498.844 404.512C498.503 395.508 500.209 386.545 503.833 378.296C507.456 370.047 512.903 362.727 519.764 356.887C529.667 348.408 542.137 343.513 555.164 342.992C569.261 342.414 583.102 346.887 594.194 355.606C605.286 364.325 612.902 376.718 615.669 390.553C616.266 393.611 616.617 396.712 616.718 399.826Z"/></g><path fill="#FF576F" d="M441.317 527.842C441.027 528.474 440.998 529.195 441.236 529.849C441.474 530.502 441.959 531.036 442.587 531.335L442.623 531.334C442.944 531.472 443.283 531.564 443.631 531.606C447.357 532.511 454.619 533.222 464.354 533.689C466.807 533.807 469.412 533.902 472.17 533.975C479.098 534.194 489.852 534.167 498.284 534.121L495.968 464.153C472.913 464.282 451.533 463.5 443.259 462.028L443.235 462.028C443.012 461.976 442.784 461.936 442.555 461.901C442.38 461.883 442.204 461.877 442.028 461.883C441.349 461.9 440.685 462.093 440.103 462.443C439.566 462.796 439.175 463.33 439 463.947C438.825 464.565 438.878 465.225 439.149 465.807L454.272 498.558L454.274 498.594L441.317 527.842Z"/><path fill="url(#paint1_linear_7060_5631)" d="M471.734 519.207L498.013 524.318L497.246 501.159L471.734 519.207Z"/><path fill="#FF576F" d="M681.329 519.896C681.661 520.507 681.739 521.224 681.547 521.892C681.354 522.56 680.905 523.125 680.298 523.465L680.262 523.466C679.951 523.626 679.618 523.74 679.275 523.804C675.616 524.954 668.418 526.143 658.74 527.253C656.297 527.534 653.702 527.801 650.955 528.055C644.057 528.732 633.324 529.417 624.901 529.929L622.585 459.961C645.604 458.565 666.891 456.371 675.037 454.354L675.085 454.353C675.31 454.285 675.536 454.23 675.761 454.181C675.935 454.151 676.11 454.133 676.286 454.127C676.965 454.1 677.64 454.248 678.244 454.559C678.806 454.872 679.235 455.379 679.45 455.985C679.665 456.591 679.652 457.255 679.412 457.852L666.488 491.532L666.49 491.568L681.329 519.896Z"/><path fill="#576D90" d="M649.181 476.283L623.298 483.122L622.531 459.963L649.181 476.283Z"/><path fill="#FF576F" fill-opacity=".5" d="M649.181 476.283L623.298 483.122L622.531 459.963L649.181 476.283Z"/><path fill="#576D90" d="M470.121 482.212L496.788 487.31L496.022 464.151L470.121 482.212Z"/><path fill="#FF576F" fill-opacity=".5" d="M470.121 482.212L496.788 487.31L496.022 464.151L470.121 482.212Z"/><path fill="#FF576F" d="M649.706 477.87L652.147 551.596C652.141 552.206 651.96 552.801 651.626 553.312C651.292 553.822 650.819 554.226 650.262 554.476C649.905 554.661 649.522 554.792 649.127 554.866L649.091 554.867C638.76 558.105 604.013 561.713 562.63 563.084C521.246 564.454 486.361 563.168 475.814 560.604C475.397 560.557 474.99 560.445 474.607 560.273C474.036 560.062 473.537 559.691 473.17 559.205C472.803 558.719 472.583 558.138 472.536 557.53L470.096 483.816C470.036 482.024 471.78 480.5 473.937 480.429C474.137 480.421 474.337 480.428 474.536 480.451C474.83 480.472 475.121 480.527 475.403 480.614C488.039 482.875 521.163 483.884 559.965 482.599C598.767 481.315 631.78 478.074 644.228 475.024L644.294 475.022C644.548 474.946 644.805 474.884 645.066 474.835C645.262 474.8 645.462 474.779 645.662 474.774C647.842 474.671 649.647 476.071 649.706 477.87Z"/><path fill="#fff" fill-rule="evenodd" d="M489.268 562.369C497.566 558.437 505.086 548.888 514.995 532.207C529.724 507.412 544.087 505.946 560.419 504.28C569.751 503.328 579.724 502.31 590.776 496.839C599.742 492.4 605.495 486.26 609.05 479.737C594.956 480.972 578.092 481.999 559.965 482.599C521.163 483.884 488.039 482.875 475.403 480.614C475.121 480.527 474.83 480.472 474.536 480.451C474.337 480.428 474.137 480.421 473.937 480.429C471.78 480.5 470.036 482.024 470.096 483.816L472.536 557.53C472.583 558.138 472.803 558.719 473.17 559.205C473.537 559.691 474.036 560.062 474.607 560.273C474.99 560.445 475.397 560.557 475.814 560.604C478.652 561.294 483.253 561.891 489.268 562.369Z" clip-rule="evenodd" opacity=".2"/><path fill="#fff" fill-rule="evenodd" d="M569.585 562.83C570.759 561.371 571.854 559.794 572.864 558.094C587.593 533.299 601.956 531.834 618.288 530.168C627.619 529.216 637.593 528.198 648.645 522.726C649.508 522.299 650.342 521.855 651.147 521.397L649.706 477.87C649.647 476.071 647.842 474.671 645.662 474.774C645.462 474.779 645.262 474.8 645.066 474.835C644.805 474.884 644.548 474.946 644.294 475.022L644.228 475.024C631.78 478.074 598.767 481.315 559.965 482.599C521.163 483.884 488.039 482.875 475.403 480.614C475.121 480.527 474.83 480.472 474.536 480.451C474.337 480.428 474.137 480.421 473.937 480.429C471.78 480.5 470.036 482.024 470.096 483.816L472.536 557.53C472.583 558.138 472.803 558.719 473.17 559.205C473.537 559.691 474.036 560.062 474.607 560.273C474.99 560.445 475.397 560.557 475.814 560.604C486.361 563.168 521.246 564.454 562.63 563.084C564.97 563.006 567.29 562.921 569.585 562.83Z" clip-rule="evenodd" opacity=".2"/><path fill="#fff" d="M502.965 528.207L498.207 514.967L494.302 515.097L490.455 528.566L486.463 515.356L482.476 515.488L488.497 534.674L492.43 534.543L496.398 520.605L501.279 534.251L505.157 534.122L509.869 514.581L506.018 514.709L502.965 528.207ZM517.066 533.728L516.621 520.291L512.989 520.411L513.433 533.848L517.066 533.728ZM512.406 516.028C512.446 517.23 513.49 518.207 514.719 518.166C515.975 518.125 516.925 517.082 516.885 515.88C516.844 514.624 515.827 513.646 514.571 513.687C513.342 513.728 512.364 514.772 512.406 516.028ZM529.061 519.824C528.787 519.806 528.513 519.788 528.213 519.798C527.066 519.835 525.219 520.225 524.459 522.027L524.393 520.033L520.869 520.15L521.314 533.587L524.947 533.467L524.743 527.322C524.647 524.427 526.229 523.472 528.086 523.411C528.414 523.4 528.77 523.415 529.182 523.484L529.061 519.824ZM534.884 524.881C534.925 523.649 535.916 522.195 537.8 522.132C539.876 522.063 540.793 523.346 540.892 524.682L534.884 524.881ZM541.363 528.166C540.966 529.382 540.065 530.26 538.372 530.316C536.569 530.375 535.025 529.141 534.884 527.369L544.498 527.051C544.496 526.996 544.532 526.448 544.515 525.929C544.372 521.614 541.799 519.047 537.648 519.184C534.207 519.298 531.131 522.189 531.273 526.477C531.423 531.011 534.761 533.552 538.448 533.43C541.752 533.321 543.818 531.311 544.424 528.967L541.363 528.166ZM566.168 532.102L565.835 522.024L556.166 522.344L556.275 525.622L562.393 525.419C562.219 526.792 560.906 529.242 557.328 529.36C554.078 529.468 551.135 527.296 550.991 522.926C550.839 518.338 553.941 516.239 556.863 516.142C560.004 516.038 561.681 517.979 562.23 519.683L565.793 518.28C564.738 515.335 561.826 512.451 556.747 512.619C551.503 512.793 546.96 516.798 547.167 523.052C547.374 529.307 551.952 532.983 557.169 532.81C560.091 532.714 561.96 531.339 562.79 529.999L563.109 532.204L566.168 532.102ZM578.902 531.681L582.371 531.566C582.301 531.103 582.188 530.177 582.154 529.14L581.789 518.133L578.157 518.253L578.415 526.064C578.467 527.621 577.575 528.744 575.963 528.798C574.27 528.854 573.465 527.677 573.416 526.175L573.159 518.419L569.526 518.539L569.808 527.033C569.904 529.955 571.84 532.27 575.09 532.162C576.51 532.115 578.049 531.518 578.745 530.237C578.763 530.783 578.838 531.409 578.902 531.681ZM585.584 527.796C585.653 529.899 587.465 531.78 590.333 531.685C592.327 531.619 593.58 530.648 594.227 529.56C594.244 530.079 594.323 530.815 594.417 531.167L597.749 531.057C597.652 530.595 597.538 529.642 597.515 528.932L597.296 522.322C597.206 519.619 595.543 517.268 591.282 517.409C587.677 517.528 585.815 519.914 585.666 522.024L588.911 522.6C588.982 521.422 589.822 520.383 591.406 520.33C592.936 520.28 593.699 521.047 593.731 522.003C593.746 522.467 593.513 522.858 592.752 522.992L589.464 523.593C587.235 523.995 585.504 525.392 585.584 527.796ZM591.008 528.956C589.834 528.995 589.235 528.249 589.209 527.457C589.174 526.419 589.895 525.876 590.819 525.708L593.835 525.144L593.855 525.745C593.933 528.121 592.538 528.905 591.008 528.956ZM609.486 517.161C609.212 517.143 608.938 517.125 608.637 517.135C607.49 517.173 605.644 517.562 604.883 519.364L604.817 517.371L601.294 517.487L601.739 530.925L605.371 530.804L605.168 524.659C605.072 521.764 606.654 520.81 608.511 520.748C608.838 520.737 609.194 520.753 609.607 520.821L609.486 517.161ZM625.059 510.357L621.481 510.476L621.735 518.15C621.33 517.453 620.206 516.533 617.884 516.61C614.088 516.736 611.541 519.91 611.671 523.842C611.806 527.912 614.636 530.826 618.46 530.699C620.262 530.639 621.601 529.775 622.166 528.69C622.187 529.318 622.291 529.971 622.355 530.242L625.823 530.127C625.75 529.583 625.663 528.601 625.633 527.7L625.059 510.357ZM615.331 523.721C615.251 521.318 616.681 519.903 618.538 519.842C620.395 519.781 621.887 521.071 621.966 523.474C622.047 525.905 620.646 527.373 618.789 527.435C616.877 527.498 615.41 526.125 615.331 523.721ZM628.953 520.345C629.136 525.889 633.766 530.302 639.338 530.117C644.909 529.933 649.292 525.222 649.108 519.677C648.924 514.106 644.239 509.695 638.668 509.88C633.096 510.064 628.768 514.773 628.953 520.345ZM631.274 520.268C631.126 515.789 634.397 512.181 638.739 512.037C643.082 511.893 646.584 515.277 646.732 519.756C646.88 524.208 643.609 527.816 639.266 527.96C634.924 528.103 631.421 524.72 631.274 520.268ZM640.82 525.338L643.688 525.243L641.364 521.11C642.602 520.522 643.41 519.319 643.362 517.872C643.297 515.905 641.605 514.376 639.502 514.445L635.187 514.588L635.549 525.513L638.143 525.427L638.018 521.63L638.81 521.604L640.82 525.338ZM637.947 519.5L637.852 516.632L639.109 516.591C640.092 516.558 640.711 517.085 640.741 517.986C640.77 518.86 640.187 519.426 639.204 519.459L637.947 519.5Z"/></g><mask id="mask2_7060_5631" style="mask-type:alpha" width="295" height="459" x="625" y="213" maskUnits="userSpaceOnUse"><path fill="#1F8A9E" d="M672.179 256C639.179 255 625.179 284 625.179 305.5C620.679 364 702.179 463 715.179 485C725.579 502.6 700.846 607.333 687.179 657.5C758.346 667.833 903.979 682.3 917.179 657.5C933.679 626.5 861.179 302 835.679 265.5C815.279 236.3 767.846 241 746.679 247L733.679 213H698.179C700.513 227.667 698.579 256.8 672.179 256Z"/></mask><g mask="url(#mask2_7060_5631)"><path fill="#1F8A9E" d="M672.179 256C639.179 255 625.179 284 625.179 305.5C620.679 364 702.179 463 715.179 485C725.579 502.6 700.846 607.333 687.179 657.5C758.346 667.833 903.979 682.3 917.179 657.5C933.679 626.5 861.179 302 835.679 265.5C815.279 236.3 767.846 241 746.679 247L733.679 213H698.179C700.513 227.667 698.579 256.8 672.179 256Z"/><path fill="#02B2C4" d="M806.5 565.5C760.1 604.3 679.167 565.333 644.5 541C521.5 398.5 595.5 175 707 131.5C818.5 87.9999 1071 456 998 450C925 444 864.5 517 806.5 565.5Z"/><path fill="#A1D3CD" d="M773.5 453.5C723.9 508.7 665.833 454.833 643 421C562.5 340.5 615.5 166.5 716.5 134C817.5 101.5 994 358 925.5 345C857 332 835.5 384.5 773.5 453.5Z"/><path fill="#CAE2D4" d="M716 384.5C680.4 425.7 632.833 371 613.5 338.5C600.5 256 652 127 725.5 112.5C799 97.9999 937.5 268.5 889.5 256.5C841.5 244.5 760.5 333 716 384.5Z"/><path fill="#FEE2C4" d="M688.5 297C654.1 306.2 646.5 264.833 647 243C651.8 189.8 746.667 159.833 793.5 151.5C772.833 196.167 722.9 287.8 688.5 297Z"/><path fill="#CEA591" d="M690.5 273.5C670.1 277.9 663 255.333 662 243.5C662 223.5 749.5 193 747.5 214C745.5 235 716 268 690.5 273.5Z"/><path fill="#222E3A" fill-opacity=".15" d="M681 588C680.5 573 733.5 501 737.5 500.5L913.5 490C936.333 512.667 980.8 560.1 976 568.5C970 579 831.5 561 804.5 558C777.5 555 754 578.5 729.5 588C705 597.5 681.5 603 681 588Z"/><path fill="#222E3A" fill-opacity=".15" d="M757.5 459C733 464.5 685.5 456 681 453.5C684.167 459.333 691.7 473.2 696.5 482C702.5 493 867.5 473 877.5 471C887.5 469 851 373 844.5 364.5C838 356 766.5 245.5 757.5 268C748.5 290.5 818.5 396 820.5 411.5C822.5 427 782 453.5 757.5 459Z"/><path fill="#fff" fill-opacity=".25" d="M665 260C681.4 250.8 683.833 247.5 683 247L601.5 260C608.333 390.833 622 654.8 622 664C622 673.2 675 663.833 701.5 658C709.667 634.833 726.3 576.7 727.5 529.5C729 470.5 669 440 633 306C628.582 289.554 644.5 271.5 665 260Z"/></g><mask id="mask3_7060_5631" style="mask-type:alpha" width="318" height="370" x="616" y="215" maskUnits="userSpaceOnUse"><path fill="#02B2C4" d="M841.5 243.5C778 180 743 245.5 742.5 247.5C735.5 272 860.5 449 857.5 453.5C854.5 458 748.5 472.5 742.5 473C736.5 473.5 640.604 451.337 638.5 457C632 474.5 679 481.5 684 494C689 506.5 622 545 617.5 556C613.9 564.8 628.667 564.667 636.5 563.5C633.167 565.5 629.2 569.9 640 571.5C653.5 573.5 677 562.5 689.5 558C702 553.5 665 575.5 661.5 580C658 584.5 665.49 585.933 683 581.5C722.5 571.5 735 540 757.5 533C780 526 921 531.5 931 507C947.122 467.5 883.5 305 841.5 243.5Z"/></mask><g mask="url(#mask3_7060_5631)"><path fill="#02B2C4" d="M841.5 243.5C778 180 743 245.5 742.5 247.5C735.5 272 860.5 449 857.5 453.5C854.5 458 748.5 472.5 742.5 473C736.5 473.5 640.604 451.337 638.5 457C632 474.5 679 481.5 684 494C689 506.5 622 545 617.5 556C613.9 564.8 628.667 564.667 636.5 563.5C633.167 565.5 629.2 569.9 640 571.5C653.5 573.5 677 562.5 689.5 558C702 553.5 665 575.5 661.5 580C658 584.5 665.49 585.933 683 581.5C722.5 571.5 735 540 757.5 533C780 526 921 531.5 931 507C947.122 467.5 883.5 305 841.5 243.5Z"/><path fill="#A1D3CD" d="M946.5 371C926.5 368 820 398.5 813.5 401C663.5 338 743.5 183 794 157.5C844.5 132 966.5 374 946.5 371Z"/><path fill="#CAE2D4" d="M887.5 298.5C839.5 279.5 768 325.5 763 327C704.5 217 767 174 818.5 169.5C870 165 935.5 317.5 887.5 298.5Z"/><path fill="#fff" fill-opacity=".25" d="M767 285C757.4 258.6 751.5 227.5 753.5 216L604.5 369.5C597 421.667 582.2 526.9 583 530.5C584 535 607.5 563.5 614.5 564C621.5 564.5 689.5 507.5 693 499C696.5 490.5 646.5 466 648 461C649.5 456 737.5 478.5 749 478.5C760.5 478.5 861.5 463 865.5 454C869.5 445 779 318 767 285Z"/></g><path fill="#FEE2C4" d="M617.5 119.5C615.1 107.5 634.167 75.5 644 61C690.5 27.5 739.5 62.5 758 80.5C768.115 90.3413 769.71 106.609 767.689 126.608C771.306 125.416 775.96 126.092 782 130.5C797.381 141.724 782.071 192.802 758.218 181.36C758.145 181.739 758.073 182.12 758 182.5C749.5 227 718 257.5 681.5 257.5C666.966 257.5 634.5 216.5 624.5 196.5C616.5 180.5 619 169.5 622 145C619.5 130 619.9 131.5 617.5 119.5Z"/><path stroke="#CEA591" stroke-width="2" d="M763 142C766.167 138.833 773.5 134.6 777.5 143C782.5 153.5 774 185.5 756 171"/><path fill="#01657F" d="M642 105.5C624.8 103.1 620 106 615 115C603 53 631.5 57.5 650 43.5C668.5 29.5 741.5 49.5 757 57.5C772.5 65.5 774.43 114.566 769 129.5C757 162.5 760.5 181 739 171C724.771 164.382 744.674 132.244 741.5 120C738 106.5 726 86.5 695.5 106.5C665 126.5 663.5 108.5 642 105.5Z"/><path fill="#222E3A" d="M677.183 153.829C677.183 135.455 702.118 118.937 714.804 153.059C710.575 166.182 684.619 176.577 677.183 153.829Z"/><path fill="#222E3A" d="M660.997 156.016C660.997 139.209 636.499 119.374 628.187 154.371C629.5 168.282 652.685 176.139 660.997 156.016Z"/><path fill="#222E3A" d="M678.495 123.311C686.807 112.375 703.168 105.901 719.616 134.248C714.221 125.936 698.093 111.762 678.495 123.311Z"/><path fill="#222E3A" d="M626 129.436C626.437 128.998 635.877 103.877 659.5 124C652.355 120.5 638.249 116.137 626 129.436Z"/><path fill="#fff" d="M677.183 156.996C677.183 138.622 698.181 119.812 714.804 153.059C710.575 166.182 684.619 179.744 677.183 156.996Z"/><path fill="#fff" d="M660.997 159.183C660.997 142.376 637.811 121.999 628.187 155.333C629.5 169.245 652.685 179.306 660.997 159.183Z"/><ellipse cx="650.06" cy="159.183" fill="#222E3A" rx="8.749" ry="10.062"/><ellipse cx="688.359" cy="158.653" fill="#222E3A" rx="9.361" ry="10.638" transform="rotate(-11.5932 688.359 158.653)"/><path fill="#CEA591" d="M659.14 189C653.64 193.333 648.64 206 659.14 210.5C673.095 216.481 653.64 205.5 659.14 189Z"/><path fill="#CEA591" d="M673.64 211.5C677.473 210.833 686.24 204.8 682.64 196L673.64 211.5Z"/><path fill="#CEA591" d="M670.5 239C673.833 239.333 680.9 239.7 682.5 238.5C684.5 237 679 247.5 670.5 239Z"/><path fill="#fff" stroke="#CEA591" stroke-width="2" d="M661 231C659.667 225.5 666.2 218.4 691 228C684.833 233.667 669 236.5 661 231Z"/></g><defs><filter id="filter0_d_7060_5631" width="313.486" height="291.432" x="403.531" y="309.821" color-interpolation-filters="sRGB" filterUnits="userSpaceOnUse"><feFlood flood-opacity="0" result="BackgroundImageFix"/><feColorMatrix in="SourceAlpha" result="hardAlpha" type="matrix" values="0 0 0 0 0 0 0 0 0 0 0 0 0 0 0 0 0 0 127 0"/><feOffset dy="2.246"/><feGaussianBlur stdDeviation="17.684"/><feComposite in2="hardAlpha" operator="out"/><feColorMatrix type="matrix" values="0 0 0 0 1 0 0 0 0 1 0 0 0 0 1 0 0 0 1 0"/><feBlend in2="BackgroundImageFix" mode="soft-light" result="effect1_dropShadow_7060_5631"/><feBlend in="SourceGraphic" in2="effect1_dropShadow_7060_5631" mode="normal" result="shape"/></filter><filter id="filter1_i_7060_5631" width="118.551" height="87.065" x="498.801" y="342.943" color-interpolation-filters="sRGB" filterUnits="userSpaceOnUse"><feFlood flood-opacity="0" result="BackgroundImageFix"/><feBlend in="SourceGraphic" in2="BackgroundImageFix" mode="normal" result="shape"/><feColorMatrix in="SourceAlpha" result="hardAlpha" type="matrix" values="0 0 0 0 0 0 0 0 0 0 0 0 0 0 0 0 0 0 127 0"/><feOffset dx="-4.491" dy="-.561"/><feComposite in2="hardAlpha" k2="-1" k3="1" operator="arithmetic"/><feColorMatrix type="matrix" values="0 0 0 0 0.156863 0 0 0 0 0.286274 0 0 0 0 0.431373 0 0 0 0.14 0"/><feBlend in2="shape" mode="normal" result="effect1_innerShadow_7060_5631"/></filter><radialGradient id="paint0_radial_7060_5631" cx="0" cy="0" r="1" gradientTransform="translate(538.5 501) rotate(55.0201) scale(388.111 330.233)" gradientUnits="userSpaceOnUse"><stop stop-color="#A1D3CD" stop-opacity=".21"/><stop offset="1" stop-color="#02B2C4" stop-opacity="0"/></radialGradient><linearGradient id="paint1_linear_7060_5631" x1="484.521" x2="485.98" y1="510.84" y2="543.158" gradientUnits="userSpaceOnUse"><stop stop-color="#1BB4B7"/><stop offset="1" stop-color="#1F3C6A"/></linearGradient><clipPath id="clip0_7060_5631"><rect width="1304" height="638" fill="#fff"/></clipPath></defs></svg>